<?xml version="1.0" standalone="no"?>
<!DOCTYPE svg PUBLIC "-//W3C//DTD SVG 20010904//EN"
 "http://www.w3.org/TR/2001/REC-SVG-20010904/DTD/svg10.dtd">
<svg version="1.0" xmlns="http://www.w3.org/2000/svg"
 width="1000.000000pt" height="1080.000000pt" viewBox="0 0 1000.000000 1080.000000"
 preserveAspectRatio="xMidYMid meet">

<g transform="translate(0.000000,1080.000000) scale(0.100000,-0.100000)"
fill="#000000" stroke="none">
<path d="M9447 10555 c-58 -63 -1004 -1012 -1499 -1502 -62 -62 -227 -227
-366 -368 -139 -141 -256 -255 -260 -253 -6 2 -267 174 -280 183 -4 3 31 64
116 200 96 152 125 200 220 358 42 71 92 152 109 180 18 29 42 70 53 92 30 58
63 112 87 137 11 13 35 50 51 84 17 34 42 74 55 90 22 26 77 125 77 139 0 15
-21 0 -61 -42 -109 -116 -1053 -1053 -1061 -1053 -5 0 -57 20 -116 44 -198 81
-475 164 -671 201 -47 8 -87 18 -90 21 -7 7 35 87 78 147 31 44 77 147 66 147
-12 0 -51 -41 -121 -127 -42 -50 -93 -105 -115 -122 l-39 -32 -112 13 c-146
16 -562 16 -703 -1 -520 -60 -923 -187 -1385 -438 -132 -72 -399 -249 -440
-293 -3 -3 -39 -32 -80 -65 -167 -133 -394 -366 -543 -558 -241 -309 -447
-698 -566 -1069 -118 -367 -164 -666 -165 -1068 0 -275 10 -398 55 -645 66
-359 205 -743 389 -1070 94 -167 280 -435 385 -555 141 -161 341 -361 427
-429 38 -29 68 -58 68 -65 0 -7 -8 -22 -18 -34 -44 -53 -53 -64 -76 -100 -13
-21 -30 -45 -38 -53 -8 -8 -29 -36 -48 -64 -19 -27 -48 -68 -65 -91 -16 -22
-39 -53 -50 -68 -11 -15 -41 -56 -68 -90 -26 -33 -64 -86 -85 -116 -20 -30
-43 -61 -50 -68 -7 -8 -59 -77 -115 -154 -56 -77 -128 -175 -159 -217 -32 -42
-74 -98 -93 -126 -19 -27 -45 -63 -58 -80 -39 -49 -201 -265 -217 -289 -8 -12
-60 -82 -116 -156 -55 -74 -126 -171 -157 -215 -30 -44 -64 -89 -75 -101 -11
-11 -31 -38 -46 -60 -46 -69 -120 -170 -154 -210 -94 -110 -141 -172 -179
-232 -45 -70 -48 -97 -6 -47 32 38 234 254 333 356 41 43 118 123 170 179 52
56 111 118 130 139 238 250 394 414 435 456 28 28 83 87 124 131 106 114 458
484 618 650 43 45 116 121 162 170 190 201 243 254 252 254 6 0 41 -17 77 -39
61 -35 166 -93 232 -127 14 -7 57 -27 95 -44 39 -18 72 -33 74 -35 3 -3 -154
-213 -168 -225 -4 -3 -33 -40 -66 -83 -33 -43 -73 -95 -90 -116 -16 -21 -59
-76 -95 -121 -36 -46 -94 -121 -130 -167 -36 -45 -104 -133 -153 -195 -97
-126 -117 -151 -209 -258 -79 -92 -138 -173 -138 -189 0 -7 171 158 380 366
814 810 899 893 918 893 11 0 71 -15 133 -34 156 -47 215 -60 427 -97 100 -18
182 -35 182 -39 0 -4 -16 -22 -35 -41 -20 -19 -45 -50 -57 -69 -12 -19 -45
-59 -73 -88 -50 -53 -115 -147 -115 -166 0 -9 124 107 169 158 9 10 58 60 108
110 l93 91 282 1 c298 1 402 9 638 50 550 96 1052 311 1500 642 367 271 661
591 905 983 262 421 429 892 496 1399 29 220 32 614 6 830 -51 421 -158 780
-342 1150 -123 249 -281 494 -440 682 l-65 78 24 42 c44 81 184 313 205 339
11 15 25 37 30 50 5 13 32 62 62 109 29 47 75 123 102 170 27 47 55 92 63 101
8 8 14 19 14 23 0 4 28 53 63 109 35 56 87 143 116 192 29 50 63 106 76 125
12 19 75 123 139 230 64 107 146 240 181 295 35 55 65 105 65 110 1 6 21 42
45 80 48 76 97 155 132 213 13 20 31 56 42 78 10 23 42 73 69 112 28 39 61 90
73 114 12 23 40 70 64 104 42 61 70 122 60 133 -3 3 -38 -30 -78 -74z m-3979
-1602 c45 -3 82 -10 82 -15 0 -10 -172 -199 -280 -309 -30 -31 -118 -123 -195
-204 -77 -81 -159 -168 -183 -192 -23 -24 -118 -123 -209 -221 -91 -97 -221
-234 -287 -303 -126 -130 -341 -358 -396 -419 -45 -49 -226 -244 -278 -299
-24 -25 -57 -61 -74 -81 -17 -19 -69 -75 -116 -125 -126 -133 -211 -225 -264
-286 -26 -30 -69 -78 -96 -106 -27 -29 -43 -53 -36 -53 15 0 134 117 134 131
0 5 6 9 14 9 15 0 76 50 76 62 0 11 42 58 52 58 18 0 -3 -75 -27 -100 -25 -26
-32 -64 -16 -88 6 -10 12 -7 24 12 10 14 17 32 17 40 0 7 7 17 16 20 14 6 16
0 11 -36 -3 -23 -11 -44 -16 -46 -6 -2 -11 -21 -11 -43 0 -21 -4 -39 -10 -39
-5 0 -10 -7 -10 -15 0 -8 -6 -14 -12 -13 -8 2 -13 -9 -14 -29 -1 -28 1 -31 14
-21 7 7 19 13 26 14 6 1 18 3 26 5 9 3 15 -3 14 -12 -2 -22 63 -22 91 0 11 9
17 12 13 7 -4 -5 -2 -16 5 -24 8 -11 8 -14 0 -9 -12 8 -99 -8 -121 -22 -7 -4
-14 -14 -15 -22 -2 -8 -6 -19 -10 -26 -8 -13 33 -4 69 15 10 6 85 31 167 57
146 47 199 53 250 31 14 -7 17 -3 17 17 0 13 6 29 13 35 13 10 137 47 271 81
43 11 82 23 86 28 5 4 38 62 75 128 37 66 79 137 92 158 13 21 47 82 75 135
28 54 56 104 63 112 7 8 34 55 60 104 26 49 64 117 85 152 21 34 55 91 75 128
19 36 62 109 95 163 32 54 77 134 100 178 23 44 46 82 50 85 7 5 29 43 80 139
25 46 120 212 192 334 20 34 49 85 64 112 15 28 30 52 34 55 5 3 29 46 55 95
25 50 66 124 90 165 60 102 96 164 122 216 20 39 27 44 57 44 37 0 232 -38
352 -69 173 -45 474 -152 474 -170 0 -4 -138 -145 -307 -313 -368 -366 -1033
-1037 -1155 -1165 -49 -50 -88 -96 -88 -102 0 -6 -6 -11 -13 -11 -7 0 -23 -11
-35 -25 -16 -18 -18 -25 -8 -25 8 0 39 25 69 56 29 30 60 57 68 58 29 6 49 19
49 32 0 7 6 17 14 21 7 4 18 18 24 30 8 14 18 20 32 16 25 -7 25 -14 2 -39
-38 -41 -52 -70 -52 -107 0 -42 22 -49 28 -9 2 12 9 22 17 22 7 0 15 6 18 13
2 6 8 9 12 4 5 -4 3 -13 -3 -19 -7 -7 -12 -27 -12 -45 0 -23 -5 -33 -15 -33
-8 0 -15 -9 -15 -20 0 -26 8 -25 31 1 26 30 49 18 49 -26 0 -28 -4 -35 -20
-35 -17 0 -20 -7 -20 -40 0 -26 -5 -40 -13 -40 -9 0 -11 -12 -9 -40 3 -25 0
-40 -7 -40 -6 0 -11 -10 -10 -22 l0 -23 12 23 c9 19 16 23 39 18 24 -5 28 -2
28 15 0 14 5 19 14 16 15 -6 31 18 27 41 -1 6 3 12 9 12 24 0 7 -44 -35 -87
-25 -25 -45 -54 -45 -63 0 -9 -9 -25 -20 -35 -12 -10 -30 -35 -42 -54 -12 -20
-28 -42 -37 -49 -13 -11 0 -12 79 -11 131 3 194 -11 258 -59 18 -14 34 -23 36
-21 1 2 15 40 30 84 30 85 50 124 91 171 119 137 602 624 620 624 6 0 19 15
28 33 10 17 35 55 58 82 37 46 116 170 130 205 4 9 38 65 76 125 74 119 197
319 253 415 117 199 144 239 159 240 21 0 241 -149 241 -164 0 -7 -28 -40 -62
-73 -69 -67 -318 -323 -359 -369 -14 -16 -38 -41 -55 -56 -33 -30 -64 -66 -64
-73 0 -13 60 34 95 75 22 26 53 53 69 60 28 13 64 43 68 58 10 32 58 56 58 28
0 -25 -12 -46 -25 -46 -16 0 -39 -82 -30 -110 9 -29 29 -20 33 16 5 38 16 49
32 29 8 -10 9 -15 1 -15 -6 0 -11 -17 -11 -40 0 -22 -4 -40 -10 -40 -13 0 -13
-37 0 -45 5 -3 13 7 17 22 7 25 8 21 14 -27 4 -30 10 -65 14 -78 6 -18 3 -24
-13 -28 -23 -6 -38 -72 -21 -89 7 -7 9 -5 7 5 -2 10 6 15 27 15 41 2 50 -5 27
-21 -11 -7 -25 -28 -32 -46 -8 -18 -24 -43 -36 -56 -12 -13 -29 -38 -38 -57
-17 -36 -71 -95 -87 -95 -12 0 -11 -40 1 -77 7 -20 26 -37 57 -54 82 -43 93
-50 93 -60 0 -5 7 -9 15 -9 8 0 23 -8 33 -17 10 -10 34 -29 55 -43 47 -32 48
-50 2 -50 -23 0 -35 5 -35 14 0 19 -18 24 -57 19 -41 -7 -43 -23 -3 -23 24 0
33 -6 43 -27 6 -16 17 -34 24 -41 11 -12 18 -50 14 -75 -1 -5 7 -11 16 -13 15
-4 18 -13 15 -45 -2 -21 -8 -39 -13 -39 -5 0 -9 -35 -8 -77 0 -53 3 -72 9 -58
8 19 9 19 9 -2 1 -14 7 -23 17 -23 8 0 12 -5 9 -10 -4 -6 -11 -7 -17 -4 -7 4
-8 2 -4 -4 10 -17 33 -15 40 4 6 15 18 16 95 11 100 -7 131 -18 152 -52 8 -13
29 -40 47 -62 18 -21 117 -144 220 -273 157 -197 192 -236 220 -243 19 -4 37
-7 42 -5 7 3 -144 294 -181 349 -10 14 -34 29 -60 36 -40 11 -47 17 -77 77
-35 70 -36 100 -2 111 19 6 227 -29 362 -61 72 -17 110 -14 68 5 -14 6 -45 25
-70 41 -25 16 -61 39 -80 50 -19 11 -73 45 -120 75 -47 30 -101 64 -120 75
-19 11 -47 28 -61 38 -115 75 -204 129 -229 141 -40 19 -41 66 -2 124 15 23
48 76 71 117 24 41 59 100 77 132 19 31 34 59 34 64 0 4 11 21 23 38 13 17 40
60 61 96 32 56 167 277 196 320 12 18 34 -5 154 -165 599 -800 801 -1835 552
-2822 -107 -425 -307 -838 -580 -1198 -312 -412 -759 -776 -1229 -1000 -345
-165 -665 -259 -1061 -311 -136 -18 -566 -31 -566 -17 0 5 57 67 128 137 296
296 1263 1255 1308 1298 27 26 58 57 70 70 11 13 101 102 200 199 98 97 189
187 200 200 12 13 299 299 638 634 340 336 652 650 694 698 81 92 138 188 173
288 18 52 20 78 17 182 -4 110 -7 128 -33 179 -16 32 -39 62 -54 69 -14 8 -45
26 -68 42 -48 31 -53 27 -22 -18 45 -66 90 -168 91 -205 1 -90 -51 -107 -236
-74 l-39 7 19 -32 c14 -24 31 -35 71 -47 48 -14 54 -19 87 -79 37 -67 38 -100
5 -110 -15 -5 -144 15 -344 55 -44 8 -386 60 -400 60 -2 0 -18 27 -35 60 -33
65 -38 107 -15 116 20 8 19 21 -2 33 -28 14 -143 25 -143 13 0 -10 10 -15 60
-26 19 -4 33 -20 53 -61 34 -69 35 -103 5 -114 -22 -8 -236 11 -268 23 -16 7
-70 119 -70 147 0 9 11 22 25 29 17 9 23 19 20 34 -2 12 -9 55 -15 96 -6 41
-17 104 -25 140 -7 36 -19 99 -26 140 -14 88 -24 114 -34 89 -4 -11 -14 -15
-26 -12 -10 3 -19 0 -19 -6 0 -6 -7 -11 -15 -11 -8 0 -15 -7 -15 -15 0 -22 46
-14 63 10 16 22 23 13 32 -40 5 -30 4 -36 -4 -25 -9 12 -11 10 -11 -12 0 -21
-4 -25 -20 -21 -14 4 -20 0 -20 -12 0 -13 6 -16 25 -13 20 4 25 1 26 -16 0
-20 1 -21 8 -1 7 17 9 16 16 -13 4 -18 4 -36 1 -39 -3 -3 -35 -5 -71 -4 l-65
2 0 -32 c0 -18 12 -97 26 -176 14 -79 24 -161 22 -181 l-3 -37 -96 0 c-71 0
-101 4 -114 15 -10 8 -43 52 -72 97 -30 46 -58 85 -63 88 -4 3 -5 -14 -2 -37
4 -24 7 -65 7 -92 0 -44 -3 -50 -25 -56 -14 -3 -61 -3 -104 0 l-80 5 -53 75
c-29 41 -103 148 -164 238 -62 89 -121 169 -132 177 -18 13 -22 12 -35 -6 -13
-19 -12 -23 15 -47 105 -95 164 -291 116 -382 -39 -72 -194 -111 -303 -77 -26
8 -54 10 -65 6 -51 -20 -135 -4 -135 25 0 7 -11 37 -24 67 l-23 53 -7 -35 c-8
-45 -76 -111 -136 -133 -25 -9 -91 -22 -148 -30 -106 -15 -138 -25 -86 -28 20
-1 15 -3 -16 -7 l-45 -6 24 -22 c24 -22 56 -20 47 3 -3 8 -1 14 4 14 6 0 10
-4 10 -9 0 -5 14 -14 32 -20 l31 -11 -20 -23 c-31 -34 -34 -43 -23 -71 6 -16
17 -26 29 -26 18 0 37 -27 26 -39 -10 -10 -209 -12 -245 -2 -49 13 -195 32
-325 42 -60 4 -130 10 -155 13 -213 25 -249 24 -365 -8 -192 -53 -215 -58
-240 -52 -17 4 -25 13 -25 29 0 19 -2 18 -20 -10 -20 -34 -69 -69 -135 -95
-112 -45 -231 -88 -243 -88 -7 0 -10 -5 -6 -12 4 -6 3 -8 -4 -5 -5 4 -32 -3
-59 -14 -26 -12 -64 -25 -83 -29 l-35 -8 40 -1 c47 -2 86 -20 45 -22 -23 0
-23 -1 -5 -9 17 -7 17 -9 3 -9 -22 -1 -23 -9 -2 -33 16 -16 16 -18 0 -24 -22
-8 -20 -51 3 -63 10 -6 22 -22 25 -36 4 -14 10 -24 14 -24 13 2 52 -13 52 -21
0 -4 -16 -15 -35 -26 -26 -14 -35 -25 -35 -44 0 -32 10 -47 35 -51 26 -5 31
-34 8 -44 -10 -4 -58 -10 -108 -15 -68 -5 -100 -4 -130 7 -22 8 -41 10 -43 5
-2 -6 -19 -6 -44 0 -23 5 -59 9 -82 8 -23 0 -106 4 -186 9 -80 5 -194 8 -255
7 l-110 -1 -105 -66 c-169 -105 -205 -123 -227 -110 -37 19 -46 151 -12 187
l21 22 -43 6 c-24 3 -101 7 -172 10 l-127 4 -6 -25 c-9 -33 3 -117 24 -177 20
-59 80 -105 243 -188 59 -30 119 -64 135 -75 16 -11 52 -33 79 -47 28 -15 62
-35 76 -44 52 -34 85 -55 111 -73 15 -11 29 -19 32 -19 2 0 34 -18 71 -41 37
-22 83 -49 101 -60 19 -10 50 -28 69 -39 20 -11 40 -20 46 -20 5 0 43 -22 85
-50 41 -27 84 -50 94 -50 10 0 35 -19 55 -42 20 -24 49 -50 64 -58 27 -14 50
-27 143 -83 21 -12 78 -46 128 -75 63 -38 90 -59 90 -72 0 -21 -48 -95 -92
-145 -16 -16 -28 -35 -28 -41 0 -5 -9 -19 -19 -31 -10 -11 -26 -33 -34 -49 -9
-16 -26 -40 -39 -54 -13 -14 -37 -46 -54 -70 -73 -104 -92 -131 -145 -201 -61
-82 -80 -108 -110 -157 l-21 -33 -28 18 c-95 60 -367 321 -478 458 -31 38 -65
79 -75 89 -28 32 -148 203 -206 296 -505 801 -637 1831 -354 2750 215 700 675
1334 1273 1753 52 37 100 70 105 75 47 35 233 141 366 207 174 88 444 188 648
240 159 41 452 88 606 98 98 7 412 7 493 0z m1546 -937 c-3 -9 -10 -16 -15
-16 -14 0 -11 28 4 33 16 6 19 3 11 -17z m59 -407 c-6 -6 -7 3 -4 23 4 28 6
29 9 9 2 -13 0 -27 -5 -32z m-9 -53 c-10 -8 -21 -12 -24 -9 -3 2 4 11 14 19
11 7 22 12 25 9 2 -3 -4 -12 -15 -19z m-1780 -260 c-3 -9 -10 -16 -15 -16 -5
0 -4 9 3 20 14 22 21 20 12 -4z m1881 -486 c3 -5 -1 -10 -9 -10 -9 0 -16 5
-16 10 0 6 4 10 9 10 6 0 13 -4 16 -10z m-3692 -181 c-4 -15 -9 -17 -17 -9 -8
8 -7 13 4 20 8 5 16 10 17 10 0 0 -1 -9 -4 -21z m17 -53 c0 -3 -4 -8 -10 -11
-5 -3 -10 -1 -10 4 0 6 5 11 10 11 6 0 10 -2 10 -4z m1943 -793 c-7 -2 -19 -2
-25 0 -7 3 -2 5 12 5 14 0 19 -2 13 -5z m44 -145 c-3 -8 -6 -5 -6 6 -1 11 2
17 5 13 3 -3 4 -12 1 -19z m1282 -242 c15 -14 53 -42 87 -63 34 -21 118 -76
187 -122 119 -79 125 -85 116 -108 -12 -31 -70 -113 -80 -113 -6 0 -20 -20
-92 -131 -11 -16 -23 -29 -28 -29 -5 0 -9 -6 -9 -12 0 -7 -14 -27 -30 -45 -17
-18 -30 -37 -30 -42 0 -6 -4 -11 -8 -11 -4 0 -15 -13 -24 -28 -9 -15 -34 -48
-55 -71 -21 -24 -45 -54 -53 -66 -8 -12 -44 -60 -80 -107 -36 -46 -92 -120
-125 -164 -33 -43 -72 -92 -87 -109 -14 -16 -41 -51 -60 -77 -37 -52 -180
-240 -257 -338 -29 -36 -76 -96 -105 -135 -30 -38 -73 -92 -95 -120 -23 -27
-49 -62 -58 -76 -22 -31 -70 -93 -98 -125 -23 -26 -101 -127 -341 -439 -59
-77 -112 -143 -116 -146 -5 -3 -23 -26 -41 -51 -18 -25 -62 -83 -99 -129 -37
-46 -97 -124 -133 -174 -87 -118 -96 -126 -148 -120 -163 18 -235 28 -327 46
-132 26 -294 66 -336 84 l-33 13 222 220 c406 403 1311 1299 1414 1401 104
102 163 174 203 246 13 22 34 60 48 85 14 25 34 57 44 73 11 15 32 51 47 80
48 90 66 120 106 182 71 111 168 270 186 306 10 20 34 57 54 83 19 25 35 51
35 57 0 6 9 23 19 38 11 15 33 52 49 82 74 139 96 179 101 179 3 0 16 -11 30
-24z m-3059 -395 c0 -10 -6 -23 -13 -30 -11 -8 -13 -5 -9 19 5 33 22 41 22 11z
m1404 -391 c40 -27 76 -50 80 -50 4 0 16 -9 27 -19 12 -11 49 -36 83 -57 33
-21 76 -48 93 -62 31 -23 32 -25 17 -50 -24 -43 -58 -88 -93 -122 -17 -17 -31
-38 -31 -46 0 -8 -4 -14 -10 -14 -5 0 -10 -4 -10 -10 0 -5 -7 -18 -16 -27 -24
-28 -117 -148 -134 -173 -14 -22 -62 -84 -145 -190 -20 -25 -74 -94 -121 -155
-46 -60 -97 -126 -113 -145 -15 -19 -56 -73 -91 -120 -35 -47 -66 -87 -70 -90
-3 -3 -17 -21 -30 -40 -14 -19 -76 -100 -140 -179 -63 -79 -126 -160 -139
-180 -13 -20 -38 -52 -55 -72 -17 -19 -43 -51 -57 -70 -85 -110 -201 -254
-208 -257 -23 -8 -471 217 -471 237 0 8 165 188 235 256 22 22 79 81 125 130
125 134 440 462 565 590 95 97 199 207 360 379 22 24 55 61 74 82 38 44 131
179 131 190 0 4 12 32 28 63 23 47 28 72 30 154 2 53 6 97 8 97 3 0 38 -22 78
-50z"/>
<path d="M6620 7702 c-14 -9 -26 -26 -28 -37 -2 -19 -2 -19 12 -1 9 10 20 15
27 10 7 -4 10 -3 6 3 -4 6 0 13 8 17 15 5 21 27 8 25 -5 0 -19 -8 -33 -17z"/>
<path d="M6981 7624 c0 -11 3 -14 6 -6 3 7 2 16 -1 19 -3 4 -6 -2 -5 -13z"/>
<path d="M5168 6966 c-12 -8 -18 -27 -18 -50 0 -45 21 -45 31 0 4 16 10 37 14
47 8 20 -3 22 -27 3z"/>
<path d="M5220 6969 c0 -5 5 -7 10 -4 6 3 10 8 10 11 0 2 -4 4 -10 4 -5 0 -10
-5 -10 -11z"/>
<path d="M4873 6963 c-7 -2 -13 -12 -13 -21 0 -10 3 -13 8 -7 4 6 13 10 21 10
8 0 16 6 19 13 4 12 -12 15 -35 5z"/>
<path d="M6938 6623 c7 -3 16 -2 19 1 4 3 -2 6 -13 5 -11 0 -14 -3 -6 -6z"/>
<path d="M5723 6599 c-57 -11 -81 -25 -103 -62 -33 -53 -23 -120 32 -232 57
-116 113 -148 282 -164 141 -14 176 -33 176 -98 0 -47 -22 -62 -90 -62 -71 -1
-124 24 -178 82 -35 39 -49 47 -77 47 -19 0 -35 -3 -35 -7 0 -3 17 -51 38
-105 37 -97 37 -98 71 -98 30 0 33 2 27 25 -8 30 -3 31 32 7 47 -32 93 -46
157 -46 79 0 145 25 168 63 54 91 -36 300 -155 362 -20 10 -70 24 -110 30
-171 24 -193 29 -209 46 -10 10 -21 30 -24 45 -9 37 29 61 98 61 77 0 120 -18
165 -69 32 -34 47 -44 72 -44 36 0 37 -8 -13 120 -31 80 -35 85 -65 88 -27 3
-32 0 -32 -18 0 -12 -3 -20 -7 -18 -93 48 -150 60 -220 47z"/>
<path d="M6901 6606 c2 -2 18 -6 34 -10 22 -5 26 -4 15 4 -14 9 -59 15 -49 6z"/>
<path d="M6060 6581 c0 -5 8 -29 19 -53 13 -32 24 -44 41 -45 29 -2 44 -18
112 -118 30 -44 112 -164 183 -267 l128 -188 73 0 c48 0 74 4 74 11 0 6 -11
79 -25 161 -14 83 -24 152 -22 155 3 2 52 -65 111 -149 58 -84 112 -160 119
-169 17 -23 157 -38 157 -17 0 14 -12 81 -72 412 -19 107 -20 120 -6 130 14
10 14 16 -6 58 -21 45 -22 46 -80 52 -32 3 -77 6 -98 6 -36 0 -39 -2 -32 -22
17 -56 34 -77 65 -80 52 -5 65 -36 104 -237 19 -102 33 -186 32 -188 -7 -7
-287 399 -287 416 0 13 8 21 24 23 l25 3 -20 46 -20 46 -76 7 c-89 7 -193 8
-193 1 0 -21 47 -95 61 -95 19 0 84 -68 92 -96 5 -16 34 -182 53 -301 3 -18 1
-33 -3 -33 -4 0 -26 28 -48 63 -22 34 -42 64 -45 67 -3 3 -22 30 -42 60 -20
30 -60 88 -87 129 -55 80 -64 111 -31 111 25 0 25 7 0 64 l-19 46 -131 0 c-72
0 -130 -4 -130 -9z"/>
<path d="M5065 6519 c-76 -10 -145 -21 -151 -23 -10 -4 -9 -17 4 -55 15 -50
17 -51 47 -45 22 4 37 1 48 -10 19 -19 150 -409 145 -433 -2 -10 -17 -22 -33
-27 -17 -6 -31 -11 -32 -11 -7 -4 30 -95 39 -95 19 0 382 51 407 57 43 10 89
46 111 84 59 106 -26 379 -156 498 -93 86 -163 95 -429 60z m312 -118 c107
-77 187 -339 122 -400 -21 -20 -42 -25 -141 -37 l-57 -6 -19 63 c-11 35 -45
136 -76 223 -31 87 -56 163 -56 167 0 8 48 14 141 17 37 2 54 -4 86 -27z"/>
<path d="M5250 6377 c-24 -7 -29 -12 -17 -14 9 -3 17 -9 17 -14 0 -5 8 -9 18
-10 10 0 12 -3 5 -6 -7 -2 -13 -9 -13 -14 0 -4 6 -6 13 -3 7 2 24 -7 37 -21
13 -14 29 -25 35 -25 7 0 20 -9 30 -20 17 -18 16 -19 -6 -24 -51 -11 -92 -11
-96 2 -3 7 4 12 17 12 12 0 18 4 15 10 -4 6 -11 8 -16 5 -5 -4 -9 2 -10 12 0
14 -2 13 -10 -5 -11 -30 -1 -72 17 -72 8 0 19 -12 24 -26 13 -33 13 -47 -1
-38 -12 7 -9 -7 14 -75 l12 -33 60 6 c87 9 101 36 69 128 -12 37 -19 45 -35
41 -23 -6 -25 5 -3 22 15 10 14 16 -10 61 -33 63 -57 91 -91 104 -30 12 -29
12 -75 -3z m99 -267 c0 -9 -4 -8 -9 5 -5 11 -9 27 -9 35 0 9 4 8 9 -5 5 -11 9
-27 9 -35z m-10 -45 c0 -5 -4 -3 -9 5 -5 8 -9 22 -9 30 0 16 17 -16 18 -35z
m84 26 c36 -2 15 -21 -22 -21 -31 0 -41 -4 -46 -21 -4 -11 -9 -19 -11 -16 -2
2 1 18 7 35 8 25 16 31 32 28 12 -3 30 -5 40 -5z m10 -38 c-7 -2 -21 -2 -30 0
-10 3 -4 5 12 5 17 0 24 -2 18 -5z m-46 -19 c-3 -3 -12 -4 -19 -1 -8 3 -5 6 6
6 11 1 17 -2 13 -5z"/>
<path d="M7190 6501 c0 -11 16 -120 35 -241 41 -261 42 -280 15 -287 -25 -7
-25 -14 0 -62 21 -42 18 -41 183 -57 l69 -7 -26 52 c-20 39 -32 51 -49 51 -12
0 -32 7 -44 15 -23 16 -51 90 -40 102 7 6 205 -15 220 -24 16 -9 67 -86 67
-100 0 -8 -11 -13 -29 -13 l-30 0 22 -49 c22 -49 23 -50 77 -57 30 -4 103 -14
163 -24 59 -9 107 -15 107 -13 0 2 -11 26 -25 53 -17 33 -32 50 -44 50 -30 0
-63 33 -167 163 -54 67 -101 124 -104 127 -3 3 -21 25 -40 50 -19 25 -45 56
-58 70 -12 14 -53 64 -90 112 -63 81 -70 87 -112 93 -25 3 -57 8 -72 11 -23 5
-28 2 -28 -15z m275 -349 c-2 -2 -37 -1 -78 3 l-74 7 -17 99 c-9 54 -16 106
-16 115 0 9 42 -37 94 -102 52 -66 92 -121 91 -122z"/>
<path d="M7350 6210 c0 -5 5 -10 11 -10 5 0 7 5 4 10 -3 6 -8 10 -11 10 -2 0
-4 -4 -4 -10z"/>
<path d="M7010 6491 c0 -6 4 -13 10 -16 6 -3 7 1 4 9 -7 18 -14 21 -14 7z"/>
<path d="M4715 6464 c-71 -14 -130 -26 -132 -28 -2 -1 4 -24 13 -49 15 -45 18
-47 53 -47 29 0 40 -5 49 -22 24 -46 130 -409 125 -428 -3 -11 -17 -22 -34
-25 -33 -7 -34 -10 -16 -66 12 -39 13 -41 47 -35 73 11 253 46 257 50 2 2 -1
24 -8 50 -11 44 -13 46 -49 46 -21 0 -42 6 -48 13 -27 32 -145 411 -137 437 4
13 15 20 30 20 13 0 26 3 28 8 8 13 -23 102 -36 101 -7 0 -70 -12 -142 -25z"/>
<path d="M7645 6400 c19 -37 31 -50 48 -50 55 0 79 -31 190 -244 59 -113 107
-214 107 -223 0 -12 -7 -14 -35 -10 -19 3 -35 2 -35 -2 0 -4 13 -27 29 -52
l28 -45 104 -18 c57 -10 131 -24 164 -32 32 -7 61 -12 63 -10 2 2 -7 24 -20
49 -20 40 -30 48 -78 64 -52 17 -58 22 -99 91 -24 40 -41 76 -38 79 3 2 62 -5
131 -18 103 -19 129 -21 152 -11 24 11 26 17 21 52 -7 52 -81 180 -138 240
-48 50 -114 89 -184 109 -50 15 -394 81 -418 81 -16 0 -15 -5 8 -50z m356
-115 c84 -18 128 -47 170 -113 52 -83 37 -101 -69 -82 -89 16 -102 20 -102 31
0 6 -20 45 -45 88 -25 43 -45 81 -45 84 0 10 10 9 91 -8z"/>
<path d="M8014 6191 c23 -45 28 -49 71 -56 26 -3 49 -4 52 -1 11 11 -40 66
-80 85 -65 31 -71 27 -43 -28z"/>
<path d="M7002 6380 c0 -19 2 -27 5 -17 2 9 2 25 0 35 -3 9 -5 1 -5 -18z"/>
<path d="M7021 6390 c0 -8 3 -19 7 -25 11 -16 32 -16 32 -1 0 19 -20 32 -21
14 0 -7 -4 -4 -9 7 -6 13 -9 15 -9 5z"/>
<path d="M4260 6364 c-184 -47 -310 -87 -310 -97 0 -5 5 -28 12 -49 11 -38 14
-40 44 -35 21 4 37 1 44 -9 17 -19 117 -414 112 -442 -2 -16 -12 -25 -33 -29
-17 -3 -29 -12 -29 -21 0 -23 22 -92 30 -92 4 0 31 8 61 18 30 11 88 27 129
37 41 10 79 21 83 25 4 4 3 28 -4 54 l-11 46 -42 -2 -41 -3 -26 80 c-14 44
-25 81 -24 83 5 6 146 42 165 42 23 0 30 -13 70 -121 17 -45 40 -94 51 -110
18 -26 26 -29 73 -29 80 0 106 24 106 98 0 81 -16 132 -41 132 -19 0 -19 -4
-13 -60 6 -51 4 -60 -9 -60 -11 0 -23 22 -38 73 -28 96 -57 143 -97 163 l-33
15 25 20 c34 27 40 67 21 140 -28 110 -74 160 -147 158 -18 0 -76 -12 -128
-25z m119 -123 c19 -19 36 -92 29 -127 -3 -20 -73 -48 -146 -60 l-38 -6 -23
87 c-13 47 -22 87 -20 89 11 6 128 34 152 35 15 0 36 -8 46 -18z"/>
<path d="M6466 6308 c16 -32 64 -95 64 -84 0 3 -5 27 -11 55 -8 37 -15 50 -32
55 -36 10 -38 7 -21 -26z"/>
<path d="M6810 6284 c13 -22 30 -46 38 -54 13 -13 14 -11 7 15 -8 35 -20 52
-48 67 -19 10 -19 8 3 -28z"/>
<path d="M7011 6304 c0 -11 3 -14 6 -6 3 7 2 16 -1 19 -3 4 -6 -2 -5 -13z"/>
<path d="M3095 6299 c-10 -15 3 -25 16 -12 7 7 7 13 1 17 -6 3 -14 1 -17 -5z"/>
<path d="M3055 6261 c-10 -17 12 -21 25 -6 10 12 10 15 -3 15 -9 0 -18 -4 -22
-9z"/>
<path d="M3655 6181 c-153 -53 -244 -87 -262 -99 -8 -5 -9 -19 0 -55 l11 -48
36 6 c44 7 43 10 72 -125 11 -52 28 -133 39 -180 10 -47 18 -104 19 -126 0
-37 -3 -43 -31 -54 -29 -12 -31 -16 -25 -49 3 -20 6 -42 6 -48 0 -7 6 -13 14
-13 24 0 430 152 458 171 38 27 62 97 54 155 -10 78 -29 125 -62 160 -25 27
-39 34 -70 34 l-38 0 37 34 c34 31 37 38 37 88 0 111 -54 198 -123 198 -18 -1
-95 -23 -172 -49z m139 -104 c26 -19 40 -94 22 -122 -13 -19 -141 -75 -172
-75 -6 0 -17 28 -23 63 -7 34 -14 69 -17 78 -5 18 19 30 106 53 69 18 63 18
84 3z m85 -293 c28 -36 29 -114 2 -138 -22 -20 -169 -77 -175 -68 -13 23 -38
174 -30 182 16 16 116 48 151 49 23 1 37 -6 52 -25z"/>
<path d="M3693 6027 c-18 -7 -33 -15 -33 -19 -1 -78 2 -80 78 -51 39 15 43 19
40 47 -2 25 -8 31 -28 33 -14 1 -40 -3 -57 -10z"/>
<path d="M3766 5752 l-48 -16 7 -50 c3 -28 8 -52 10 -54 6 -6 99 30 114 44 11
10 13 22 5 51 -11 44 -22 47 -88 25z"/>
<path d="M3318 6153 c7 -3 16 -2 19 1 4 3 -2 6 -13 5 -11 0 -14 -3 -6 -6z"/>
<path d="M3995 6130 c-3 -5 -3 -31 1 -58 3 -26 1 -66 -5 -87 -15 -57 2 -65 34
-16 23 34 26 48 21 80 -12 75 -33 110 -51 81z"/>
<path d="M5893 6072 c49 -51 167 -71 175 -30 5 27 -37 45 -123 52 l-80 7 28
-29z"/>
<path d="M3267 6032 l-88 -36 6 -36 c11 -62 15 -70 38 -67 14 1 23 -4 25 -17
5 -23 -28 -205 -39 -211 -6 -4 -90 101 -112 142 -10 16 2 43 19 43 8 0 14 10
14 24 0 37 -12 86 -21 86 -7 0 -240 -108 -247 -114 -2 -2 0 -26 4 -54 6 -49 8
-51 33 -46 30 6 44 -8 190 -188 60 -75 62 -80 68 -147 l6 -69 -33 -17 c-32
-16 -32 -18 -26 -68 4 -28 8 -53 10 -54 1 -2 27 9 57 23 30 15 90 42 134 61
44 19 81 35 82 37 2 2 -1 26 -7 53 l-11 51 -30 -12 c-39 -14 -52 2 -68 83 -10
53 -8 73 28 246 31 153 43 192 61 207 18 14 20 23 14 55 -11 64 -12 64 -107
25z"/>
<path d="M5000 5970 c0 -5 5 -10 11 -10 5 0 7 5 4 10 -3 6 -8 10 -11 10 -2 0
-4 -4 -4 -10z"/>
<path d="M3404 5928 c-22 -10 -37 -49 -49 -125 l-7 -42 59 -38 c32 -21 62 -38
67 -38 5 0 12 -9 17 -20 16 -41 9 34 -12 138 -31 153 -28 148 -75 125z"/>
<path d="M2705 5765 l-120 -64 1 -51 c1 -28 4 -53 7 -56 2 -3 16 1 31 7 16 8
30 9 36 3 13 -13 34 -158 24 -161 -5 -2 -48 -25 -96 -52 -98 -55 -92 -58 -103
46 -7 67 3 98 35 108 12 4 20 15 20 29 0 38 -12 86 -21 86 -20 0 -158 -93
-195 -132 -36 -37 -41 -48 -37 -75 5 -34 20 -42 41 -21 27 27 40 -16 66 -213
34 -256 34 -263 -5 -291 -29 -22 -31 -26 -25 -72 3 -27 7 -51 10 -53 2 -3 28
11 58 29 29 19 83 51 120 71 37 21 70 42 73 48 4 5 4 32 0 59 -6 44 -9 49 -25
40 -32 -17 -57 -12 -63 13 -3 12 -9 52 -12 88 l-7 66 93 51 c63 36 95 48 100
41 10 -17 22 -155 15 -177 -4 -10 -18 -24 -33 -31 -24 -11 -25 -15 -20 -63 4
-28 9 -53 11 -55 3 -3 21 5 41 17 20 12 77 44 128 71 l92 48 -3 48 c-2 26 -5
50 -7 52 -2 2 -17 -1 -34 -7 -22 -8 -32 -7 -40 2 -6 7 -27 111 -46 231 -32
197 -34 220 -20 241 8 12 23 25 34 29 16 5 18 12 14 48 -3 23 -8 47 -12 54 -4
8 -43 -8 -126 -52z"/>
<path d="M3341 5680 c0 -8 4 -22 9 -30 12 -18 12 -2 0 25 -6 13 -9 15 -9 5z"/>
<path d="M5313 5653 c-39 -5 -46 -33 -9 -33 35 0 56 10 56 26 0 8 -3 13 -7 12
-5 0 -23 -3 -40 -5z"/>
<path d="M3440 5633 c0 -5 5 -15 10 -23 8 -12 10 -11 10 8 0 12 -4 22 -10 22
-5 0 -10 -3 -10 -7z"/>
<path d="M3500 5615 c0 -14 4 -25 9 -25 4 0 6 11 3 25 -2 14 -6 25 -8 25 -2 0
-4 -11 -4 -25z"/>
<path d="M3456 5581 c14 -15 74 -32 74 -21 0 12 -9 16 -50 25 -26 5 -32 4 -24
-4z"/>
<path d="M3475 5540 c-8 -13 5 -13 25 0 13 8 13 10 -2 10 -9 0 -20 -4 -23 -10z"/>
<path d="M3413 5455 c7 -13 14 -20 15 -14 5 14 -6 39 -17 39 -5 0 -4 -11 2
-25z"/>
<path d="M3462 5410 c0 -14 2 -19 5 -12 2 6 2 18 0 25 -3 6 -5 1 -5 -13z"/>
<path d="M3430 5390 c0 -5 5 -10 10 -10 6 0 10 5 10 10 0 6 -4 10 -10 10 -5 0
-10 -4 -10 -10z"/>
<path d="M3470 5369 c0 -5 -4 -8 -8 -5 -4 2 -14 0 -22 -5 -13 -9 -13 -10 0 -6
8 2 24 -3 35 -12 11 -8 15 -9 8 -2 -6 7 -9 20 -6 27 3 8 2 14 -1 14 -3 0 -6
-5 -6 -11z"/>
<path d="M3426 5293 c-6 -14 -5 -15 5 -6 7 7 10 15 7 18 -3 3 -9 -2 -12 -12z"/>
<path d="M3520 5095 c0 -17 6 -25 18 -25 9 0 27 -3 40 -6 18 -5 22 -2 22 14 0
23 -27 42 -59 42 -16 0 -21 -6 -21 -25z"/>
</g>
</svg>
